<?xml version="1.0" encoding="UTF-8"?>
<svg id="Capa_1" xmlns="http://www.w3.org/2000/svg" version="1.1" viewBox="0 0 34 34">
  <!-- Generator: Adobe Illustrator 30.1.0, SVG Export Plug-In . SVG Version: 2.1.1 Build 136)  -->
  <defs>
    <style>
      .st0 {
        fill: #08080b;
      }

      .st1 {
        fill: #fff;
      }
    </style>
  </defs>
  <circle class="st0" cx="17" cy="17" r="16.6"/>
  <g>
    <path class="st1" d="M24.9,12.3c-.8.5-1.8.4-2.4-.2-1.4-1.4-3.4-2.2-5.4-2.2s-.7,0-1,0l-.6-4.5c.5,0,1.1-.1,1.6-.1,4.1,0,7.9,2,10.2,5.4l-2.3,1.6Z"/>
    <path class="st1" d="M9.1,27.1c-2.8-2.3-4.4-5.8-4.4-9.4s.2-2.3.5-3.4l4.4,1.3c-.2.7-.3,1.4-.3,2.1,0,2.3,1,4.5,2.8,5.9l-2.9,3.5Z"/>
    <path class="st1" d="M22.5,28.7l-2-4.1c1.9-1,3.3-2.7,4-4.7h-7.8s0-3,0-3c0-.9.7-1.6,1.6-1.6h8.9c1.3,0,2.3,1,2.3,2.3h0c0,4.7-2.6,9-6.8,11.1Z"/>
  </g>
</svg>