<?xml version="1.0" encoding="UTF-8"?>
<svg id="Capa_1" xmlns="http://www.w3.org/2000/svg" version="1.1" viewBox="0 0 150 34">
  <!-- Generator: Adobe Illustrator 30.1.0, SVG Export Plug-In . SVG Version: 2.1.1 Build 136)  -->
  <g>
    <path d="M35.2,10.5c-1.1.7-2.5.6-3.5-.3-2.1-2-4.9-3.2-7.8-3.2s-1,0-1.5.1l-.9-6.5c.8-.1,1.6-.2,2.4-.2,5.9,0,11.4,2.9,14.7,7.8l-3.4,2.3Z"/>
    <path d="M12.6,31.7c-4-3.4-6.3-8.3-6.4-13.5,0-1.7.2-3.3.7-4.9l6.3,1.8c-.3,1-.4,2-.4,3.1,0,3.3,1.5,6.4,4,8.5l-4.2,5Z"/>
    <path d="M31.8,34l-2.9-5.9c2.8-1.4,4.8-3.8,5.7-6.7h-11.2s0-4.3,0-4.3c0-1.2,1-2.3,2.2-2.3h12.8c1.8,0,3.3,1.4,3.3,3.3h0c0,6.8-3.7,12.9-9.8,15.9Z"/>
  </g>
  <g>
    <path d="M68.5,8.9v2.9h-3c1.7.9,2.9,2.8,2.9,4.8,0,4.4-3.7,7.8-8,7.8s-1.6,0-2.4-.3c-.2,0-.4,0-.6,0-.8,0-1.6.5-1.8,1.3-.3.9,0,1.8.9,2.2,1.2.6,2.7.7,3.9.7,2.6,0,5-.8,6.8-2.1l1.3,2.8c-2.3,1.4-5.2,2.3-8.1,2.3s-3.3-.2-4.7-.8c-1.8-.8-2.8-2.5-2.6-4.3.1-1.5,1.1-2.8,2.6-3.3-2-1.4-3.3-3.6-3.3-6.3,0-4.4,3.6-7.7,8-7.7h8.1ZM60.3,11.9c-2.7,0-4.7,2-4.7,4.7s2.1,4.8,4.7,4.8,4.7-2.1,4.7-4.8-2.1-4.7-4.7-4.7Z"/>
    <path d="M75.7,9v3.4c1.1-2.2,3.4-3.6,6.1-3.6v3.4c-3.1-.2-6.1,1.2-6.1,4.8v7.2h-3.3v-15.2h3.3Z"/>
    <path d="M90.5,8.9c2.6,0,4.6,1.3,5.6,3.3v-3.2h3.2v15.2h-3.2v-3.2c-1,2-3,3.3-5.6,3.3-3.8,0-7.3-3.3-7.3-7.8s3.4-7.7,7.3-7.7ZM91.3,11.8c-2.7,0-4.8,2.1-4.8,4.8s2.1,4.8,4.8,4.8,4.8-2.1,4.8-4.8-2.1-4.8-4.8-4.8Z"/>
    <path d="M105.3,9l4.2,11.9,4.2-11.9h3.4l-5.5,15.2h-4.2l-5.5-15.2h3.4Z"/>
    <path d="M122.9,5.2c0,1-.8,1.8-1.9,1.8s-1.9-.7-1.9-1.8.8-1.7,1.9-1.7,1.9.8,1.9,1.7ZM119.5,9h3.1v15.3h-3.1v-15.3Z"/>
    <path d="M133,8.9c2.6,0,4.6,1.3,5.6,3.3v-3.2h3.2v15.2h-3.2v-3.2c-1,2-3,3.3-5.6,3.3-3.8,0-7.3-3.3-7.3-7.8s3.4-7.7,7.3-7.7ZM133.8,11.8c-2.7,0-4.8,2.1-4.8,4.8s2.1,4.8,4.8,4.8,4.8-2.1,4.8-4.8-2.1-4.8-4.8-4.8Z"/>
  </g>
</svg>