<?xml version="1.0" encoding="UTF-8"?>
<svg id="Capa_1" xmlns="http://www.w3.org/2000/svg" version="1.1" viewBox="0 0 34 34">
  <!-- Generator: Adobe Illustrator 30.1.0, SVG Export Plug-In . SVG Version: 2.1.1 Build 136)  -->
  <defs>
    <style>
      .st0 {
        fill: #08080b;
      }

      .st1 {
        fill: #fff;
      }
    </style>
  </defs>
  <circle class="st0" cx="17" cy="17" r="16.6"/>
  <g>
    <path class="st1" d="M23.5,13.1c-.7.4-1.5.3-2-.2-1.2-1.2-2.9-1.8-4.5-1.8s-.6,0-.8,0l-.5-3.8c.4,0,.9,0,1.3,0,3.4,0,6.6,1.7,8.6,4.5l-1.9,1.3h0Z"/>
    <path class="st1" d="M10.3,25.5c-2.3-1.9-3.7-4.9-3.7-7.9s.2-1.9.4-2.9l3.7,1.1c-.2.6-.3,1.2-.3,1.8,0,1.9.8,3.8,2.3,4.9l-2.4,2.9h0Z"/>
    <path class="st1" d="M21.5,26.8l-1.7-3.4c1.6-.8,2.8-2.3,3.4-3.9h-6.5v-2.5c0-.8.6-1.3,1.3-1.3h7.5c1.1,0,1.9.8,1.9,1.9h0c0,3.9-2.2,7.5-5.7,9.3h-.2Z"/>
  </g>
</svg>